                                                                        S      1
,,9H(Unsaved),10HPOP_Endcap,7Hunknown,7Hunknown,32,38,7,99,15,,1.,2,2HMMG      1
,1,0.08,15H20230612.114235,0.01,10000.,7Hunknown,7Hunknown,11,0,;       G      2
     186       1                                                00000000D      1
     186            -125       1       0                               0D      2
     514       2                                                00010000D      3
     514                       1       1                               0D      4
     510       3                                                00010000D      5
     510            -125       1       1                               0D      6
     510       4                                                00010000D      7
     510            -125       1       1                               0D      8
     510       5                                                00010000D      9
     510            -125       1       1                               0D     10
     510       6                                                00010000D     11
     510            -125       1       1                               0D     12
     510       7                                                00010000D     13
     510            -125       1       1                               0D     14
     510       8                                                00010000D     15
     510            -125       1       1                               0D     16
     510       9                                                00010000D     17
     510            -125       1       1                               0D     18
     510      10                                                00010000D     19
     510            -125       1       1                               0D     20
     510      11                                                00010000D     21
     510            -125       1       1                               0D     22
     510      12                                                00010000D     23
     510            -125       1       1                               0D     24
     510      13                                                00010000D     25
     510            -125       1       1                               0D     26
     508      14                                                00010000D     27
     508                       1       1                               0D     28
     508      15                                                00010000D     29
     508                       1       1                               0D     30
     508      16                                                00010000D     31
     508                       1       1                               0D     32
     508      17                                                00010000D     33
     508                       1       1                               0D     34
     508      18                                                00010000D     35
     508                       2       1                               0D     36
     508      20                                                00010000D     37
     508                       2       1                               0D     38
     508      22                                                00010000D     39
     508                       1       1                               0D     40
     508      23                                                00010000D     41
     508                       1       1                               0D     42
     508      24                                                00010000D     43
     508                       1       1                               0D     44
     508      25                                                00010000D     45
     508                       1       1                               0D     46
     508      26                                                00010000D     47
     508                       1       1                               0D     48
     508      27                                                00010000D     49
     508                       1       1                               0D     50
     508      28                                                00010000D     51
     508                       1       1                               0D     52
     508      29                                                00010000D     53
     508                       1       1                               0D     54
     508      30                                                00010000D     55
     508                       1       1                               0D     56
     126      31                                                00010000D     57
     126       0              10       0                               0D     58
     126      41                                                00010000D     59
     126       0               5       0                               0D     60
     126      46                                                00010000D     61
     126       0              10       0                               0D     62
     126      56                                                00010000D     63
     126       0               3       0                               0D     64
     126      59                                                00010000D     65
     126       0              10       0                               0D     66
     126      69                                                00010000D     67
     126       0               9       0                               0D     68
     126      78                                                00010000D     69
     126       0               6       0                               0D     70
     126      84                                                00010000D     71
     126       0               4       0                               0D     72
     126      88                                                00010000D     73
     126       0               6       0                               0D     74
     126      94                                                00010000D     75
     126       0               6       0                               0D     76
     126     100                                                00010000D     77
     126       0               5       0                               0D     78
     126     105                                                00010000D     79
     126       0               4       0                               0D     80
     126     109                                                00010000D     81
     126       0              10       0                               0D     82
     126     119                                                00010000D     83
     126       0               9       0                               0D     84
     126     128                                                00010000D     85
     126       0               9       0                               0D     86
     126     137                                                00010000D     87
     126       0              10       0                               0D     88
     126     147                                                00010000D     89
     126       0               5       0                               0D     90
     126     152                                                00010000D     91
     126       0               2       0                               0D     92
     126     154                                                00010000D     93
     126       0               4       0                               0D     94
     126     158                                                00010000D     95
     126       0               6       0                               0D     96
     128     164                                                00010000D     97
     128       0    -125      24       0                               0D     98
     128     188                                                00010000D     99
     128       0    -125      15       0                               0D    100
     128     203                                                00010000D    101
     128       0    -125       3       0                               0D    102
     128     206                                                00010000D    103
     128       0    -125      23       0                               0D    104
     128     229                                                00010000D    105
     128       0    -125      15       0                               0D    106
     128     244                                                00010000D    107
     128       0    -125       4       0                               0D    108
     128     248                                                00010000D    109
     128       0    -125       3       0                               0D    110
     128     251                                                00010000D    111
     128       0    -125      12       0                               0D    112
     128     263                                                00010000D    113
     128       0    -125       4       0                               0D    114
     128     267                                                00010000D    115
     128       0    -125      19       0                               0D    116
     128     286                                                00010000D    117
     128       0    -125      29       0                               0D    118
     502     315                                                00010000D    119
     502                       8       1                               0D    120
     504     323                                                00010001D    121
     504                       6       1                               0D    122
     406     329                                                00000000D    123
     406                       1      15                               0D    124
     314     330                                                00000200D    125
     314                       2       0                               0D    126
186,3,1,0,0,1,123;                                                     1P      1
514,11,5,1,7,1,9,1,11,1,13,1,15,1,17,1,19,1,21,1,23,1,25,1;            3P      2
510,97,1,1,27;                                                         5P      3
510,99,1,1,29;                                                         7P      4
510,101,2,1,31,33;                                                     9P      5
510,103,1,1,35;                                                       11P      6
510,105,1,1,37;                                                       13P      7
510,107,2,1,39,41;                                                    15P      8
510,109,2,1,43,45;                                                    17P      9
510,111,1,1,47;                                                       19P     10
510,113,2,1,49,51;                                                    21P     11
510,115,1,1,53;                                                       23P     12
510,117,1,1,55;                                                       25P     13
508,4,0,121,1,1,0,0,121,2,1,0,0,121,3,1,0,0,121,2,0,0;                27P     14
508,4,0,121,3,0,0,0,121,4,1,0,0,121,5,1,0,0,121,4,0,0;                29P     15
508,1,0,121,6,1,0;                                                    31P     16
508,1,0,121,1,0,0;                                                    33P     17
508,6,0,121,7,1,0,0,121,8,1,0,0,121,9,1,0,0,121,10,1,0,0,121,8,       35P     18
0,0,0,121,11,1,0;                                                     35P     19
508,5,0,121,10,0,0,0,121,12,1,0,0,121,13,1,0,0,121,12,0,0,0,121,      37P     20
9,0,0;                                                                37P     21
508,2,0,121,7,0,0,0,121,11,0,0;                                       39P     22
508,1,0,121,14,0,0;                                                   41P     23
508,1,0,121,15,1,0;                                                   43P     24
508,2,0,121,16,0,0,0,121,17,0,0;                                      45P     25
508,4,0,121,15,0,0,0,121,18,1,0,0,121,6,0,0,0,121,18,0,0;             47P     26
508,1,0,121,5,0,0;                                                    49P     27
508,1,0,121,13,0,0;                                                   51P     28
508,3,0,121,14,1,0,0,121,19,0,0,0,121,19,1,0;                         53P     29
508,4,0,121,16,1,0,0,121,20,0,0,0,121,20,1,0,0,121,17,1,0;            55P     30
126,8,2,0,1,0,0,-3.14159265358979,-3.14159265358979,                  57P     31
-3.14159265358979,-1.5707963267949,-1.5707963267949,0.,0.,            57P     32
1.5707963267949,1.5707963267949,3.14159265358979,                     57P     33
3.14159265358979,3.14159265358979,1.,0.707106781186548,1.,            57P     34
0.707106781186548,1.,0.707106781186548,1.,0.707106781186548,1.,       57P     35
-29.006,3.55221050560681D-15,0.,-29.006,29.006,0.,                    57P     36
1.77610525280341D-15,29.006,0.,29.006,29.006,0.,29.006,0.,0.,         57P     37
29.006,-29.006,0.,1.77610525280341D-15,-29.006,0.,-29.006,            57P     38
-29.006,0.,-29.006,-3.55221050560681D-15,0.,-3.14159265358979,        57P     39
3.14159265358979,0.,0.,0.;                                            57P     40
126,2,2,0,0,0,0,1.57079632679486,1.57079632679486,                    59P     41
1.57079632679486,3.14159265358979,3.14159265358979,                   59P     42
3.14159265358979,1.,0.70710678118653,1.,-29.006,0.,0.,-28.956,        59P     43
0.,-1.64888510654542D-15,-28.956,0.,0.05,1.57079632679486,            59P     44
3.14159265358979,0.,0.,0.;                                            59P     45
126,8,2,0,1,0,0,-3.14159265358979,-3.14159265358979,                  61P     46
-3.14159265358979,-1.5707963267949,-1.5707963267949,0.,0.,            61P     47
1.5707963267949,1.5707963267949,3.14159265358979,                     61P     48
3.14159265358979,3.14159265358979,1.,0.707106781186548,1.,            61P     49
0.707106781186548,1.,0.707106781186548,1.,0.707106781186548,1.,       61P     50
-28.956,-3.54608727161108D-15,0.05,-28.956,-28.956,0.05,              61P     51
1.77304363580554D-15,-28.956,0.05,28.956,-28.956,0.05,28.956,0.,      61P     52
0.05,28.956,28.956,0.05,1.77304363580554D-15,28.956,0.05,             61P     53
-28.956,28.956,0.05,-28.956,3.54608727161108D-15,0.05,                61P     54
-3.14159265358979,3.14159265358979,0.,0.,0.;                          61P     55
126,1,1,0,0,1,0,0.00172675783948059,0.00172675783948059,              63P     56
0.100877192982456,0.100877192982456,1.,1.,-28.956,0.,0.05,            63P     57
-28.956,0.,2.921,0.00172675783948059,0.100877192982456,0.,0.,0.;      63P     58
126,8,2,0,1,0,0,-3.14159265358979,-3.14159265358979,                  65P     59
-3.14159265358979,-1.5707963267949,-1.5707963267949,0.,0.,            65P     60
1.5707963267949,1.5707963267949,3.14159265358979,                     65P     61
3.14159265358979,3.14159265358979,1.,0.707106781186548,1.,            65P     62
0.707106781186548,1.,0.707106781186548,1.,0.707106781186548,1.,       65P     63
-28.956,-3.54608727161108D-15,2.921,-28.956,-28.956,2.921,            65P     64
1.77304363580554D-15,-28.956,2.921,28.956,-28.956,2.921,28.956,       65P     65
0.,2.921,28.956,28.956,2.921,1.77304363580554D-15,28.956,2.921,       65P     66
-28.956,28.956,2.921,-28.956,3.54608727161108D-15,2.921,              65P     67
-3.14159265358979,3.14159265358979,0.,0.,0.;                          65P     68
126,8,2,0,1,0,0,-3.14159265358979,-3.14159265358979,                  67P     69
-3.14159265358979,-1.5707963267949,-1.5707963267949,0.,0.,            67P     70
1.5707963267949,1.5707963267949,3.14159265358979,                     67P     71
3.14159265358979,3.14159265358979,1.,0.707106781186548,1.,            67P     72
0.707106781186548,1.,0.707106781186548,1.,0.707106781186548,1.,       67P     73
-37.,4.53119315684521D-15,0.,-37.,37.,0.,2.2655965784226D-15,         67P     74
37.,0.,37.,37.,0.,37.,0.,0.,37.,-37.,0.,2.2655965784226D-15,          67P     75
-37.,0.,-37.,-37.,0.,-37.,-4.53119315684521D-15,0.,                   67P     76
-3.14159265358979,3.14159265358979,0.,0.,0.;                          67P     77
126,4,2,0,0,0,0,-3.14159265358979,-3.14159265358979,                  69P     78
-3.14159265358979,-1.5707963267949,-1.5707963267949,0.,0.,0.,1.,      69P     79
0.707106781186547,1.,0.707106781186548,1.,-25.1468,                   69P     80
-3.07959481287987D-15,0.,-25.1468,-25.1468,0.,                        69P     81
1.53979740643993D-15,-25.1468,0.,25.1468,-25.1468,0.,25.1468,0.,      69P     82
0.,-3.14159265358979,0.,0.,0.,0.;                                     69P     83
126,2,2,0,0,0,0,-1.57079632679494,-1.57079632679494,                  71P     84
-1.57079632679494,0.,0.,0.,1.,0.707106781186529,1.,25.1468,0.,        71P     85
0.,25.1968,0.,-1.92395136457645D-15,25.1968,0.,0.05,                  71P     86
-1.57079632679494,0.,0.,0.,0.;                                        71P     87
126,4,2,0,0,0,0,0.,0.,0.,1.5707963267949,1.5707963267949,             73P     88
3.14159265358979,3.14159265358979,3.14159265358979,1.,                73P     89
0.707106781186548,1.,0.707106781186547,1.,25.1968,0.,0.05,            73P     90
25.1968,-25.1968,0.05,1.5428590234378D-15,-25.1968,0.05,              73P     91
-25.1968,-25.1968,0.05,-25.1968,-3.0857180468756D-15,0.05,0.,         73P     92
3.14159265358979,0.,0.,0.;                                            73P     93
126,4,2,0,0,0,0,-3.14159265358979,-3.14159265358979,                  75P     94
-3.14159265358979,-1.5707963267949,-1.5707963267949,0.,0.,0.,1.,      75P     95
0.707106781186547,1.,0.707106781186548,1.,-25.1968,                   75P     96
3.0857180468756D-15,0.05,-25.1968,25.1968,0.05,                       75P     97
1.5428590234378D-15,25.1968,0.05,25.1968,25.1968,0.05,25.1968,        75P     98
0.,0.05,-3.14159265358979,0.,0.,0.,0.;                                75P     99
126,4,2,0,0,0,0,0.,0.,0.,1.5707963267949,1.5707963267949,             77P    100
3.14159265358979,3.14159265358979,3.14159265358979,1.,                77P    101
0.707106781186548,1.,0.707106781186547,1.,25.1468,0.,0.,25.1468,      77P    102
25.1468,0.,1.53979740643993D-15,25.1468,0.,-25.1468,25.1468,0.,       77P    103
-25.1468,3.07959481287987D-15,0.,0.,3.14159265358979,0.,0.,0.;        77P    104
126,1,1,0,0,1,0,0.00198437896875794,0.00198437896875794,              79P    105
0.115927419354839,0.115927419354839,1.,1.,-25.1968,0.,0.05,           79P    106
-25.1968,0.,2.921,0.00198437896875794,0.115927419354839,0.,0.,        79P    107
0.;                                                                   79P    108
126,8,2,0,1,0,0,-3.14159265358979,-3.14159265358979,                  81P    109
-3.14159265358979,-1.5707963267949,-1.5707963267949,0.,0.,            81P    110
1.5707963267949,1.5707963267949,3.14159265358979,                     81P    111
3.14159265358979,3.14159265358979,1.,0.707106781186547,1.,            81P    112
0.707106781186548,1.,0.707106781186548,1.,0.707106781186547,1.,       81P    113
-25.1968,3.0857180468756D-15,2.921,-25.1968,25.1968,2.921,            81P    114
1.5428590234378D-15,25.1968,2.921,25.1968,25.1968,2.921,25.1968,      81P    115
0.,2.921,25.1968,-25.1968,2.921,1.5428590234378D-15,-25.1968,         81P    116
2.921,-25.1968,-25.1968,2.921,-25.1968,-3.0857180468756D-15,          81P    117
2.921,-3.14159265358979,3.14159265358979,0.,0.,0.;                    81P    118
126,8,2,0,1,0,0,-3.14159265358979,-3.14159265358979,                  83P    119
-3.14159265358979,-1.5707963267949,-1.5707963267949,0.,0.,            83P    120
1.5707963267949,1.5707963267949,3.14159265358979,                     83P    121
3.14159265358979,3.14159265358979,1.,0.707106781186548,1.,            83P    122
0.707106781186548,1.,0.707106781186548,1.,0.707106781186548,1.,       83P    123
-22.,2.69422295812418D-15,0.,-22.,22.,0.,1.34711147906209D-15,        83P    124
22.,0.,22.,22.,0.,22.,0.,0.,22.,-22.,0.,1.34711147906209D-15,         83P    125
-22.,0.,-22.,-22.,0.,-22.,-2.69422295812418D-15,0.,                   83P    126
-3.14159265358979,3.14159265358979,0.,0.,0.;                          83P    127
126,8,2,0,1,0,0,-3.14159265358979,-3.14159265358979,                  85P    128
-3.14159265358979,-1.5707963267949,-1.5707963267949,0.,0.,            85P    129
1.5707963267949,1.5707963267949,3.14159265358979,                     85P    130
3.14159265358979,3.14159265358979,1.,0.707106781186548,1.,            85P    131
0.707106781186548,1.,0.707106781186548,1.,0.707106781186548,1.,       85P    132
-37.,-4.53119315684521D-15,5.,-37.,-37.,5.,2.2655965784226D-15,       85P    133
-37.,5.,37.,-37.,5.,37.,0.,5.,37.,37.,5.,2.2655965784226D-15,         85P    134
37.,5.,-37.,37.,5.,-37.,4.53119315684521D-15,5.,                      85P    135
-3.14159265358979,3.14159265358979,0.,0.,0.;                          85P    136
126,6,2,0,0,0,0,-3.14159265358979,-3.14159265358979,                  87P    137
-3.14159265358979,-1.5707963267949,-1.5707963267949,0.,0.,            87P    138
1.5707963267949,1.5707963267949,1.5707963267949,1.,                   87P    139
0.707106781186548,1.,0.707106781186547,1.,0.707106781186547,1.,       87P    140
3.87073639360677D-15,-31.6069612585582,5.,31.6069612585582,           87P    141
-31.6069612585582,5.,31.6069612585582,1.93536819680339D-15,5.,        87P    142
31.6069612585582,31.6069612585582,5.,0.,31.6069612585582,5.,          87P    143
-31.6069612585582,31.6069612585582,5.,-31.6069612585582,              87P    144
1.93536819680339D-15,5.,-3.14159265358979,1.5707963267949,0.,0.,      87P    145
0.;                                                                   87P    146
126,2,2,0,0,0,0,1.5707963267949,1.5707963267949,1.5707963267949,      89P    147
3.14159265358979,3.14159265358979,3.14159265358979,1.,                89P    148
0.707106781186548,1.,-31.6069612585582,1.93536819680339D-15,5.,       89P    149
-31.6069612585582,-31.6069612585582,5.,-3.87073639360677D-15,         89P    150
-31.6069612585582,5.,1.5707963267949,3.14159265358979,0.,0.,0.;       89P    151
126,1,1,0,0,1,0,-0.135135135135135,-0.135135135135135,0.,0.,1.,       91P    152
1.,-37.,0.,5.,-37.,0.,0.,-0.135135135135135,0.,0.,0.,0.;              91P    153
126,2,2,0,0,0,0,-1.5707963267949,-1.5707963267949,                    93P    154
-1.5707963267949,0.,0.,0.,1.,0.707106781186548,1.,                    93P    155
-1.34711147906209D-15,0.,22.,-22.,0.,22.,-22.,0.,0.,                  93P    156
-1.5707963267949,0.,0.,0.,0.;                                         93P    157
126,2,2,0,0,0,0,-1.5707963267949,-1.5707963267949,                    95P    158
-1.5707963267949,-0.156892871020461,-0.156892871020461,               95P    159
-0.156892871020461,1.,0.760345316287278,1.,                           95P    160
-1.95943487863577D-15,0.,32.,-27.335750277672,0.,32.,                 95P    161
-31.6069612585582,0.,5.,-1.5707963267949,-0.156892871020461,0.,       95P    162
0.,0.;                                                                95P    163
128,2,8,2,2,0,1,0,0,1,-3.14159265358979,-3.14159265358979,            97P    164
-3.14159265358979,-1.57079632679486,-1.57079632679486,                97P    165
-1.57079632679486,-3.14159265358979,-3.14159265358979,                97P    166
-3.14159265358979,-1.5707963267949,-1.5707963267949,0.,0.,            97P    167
1.5707963267949,1.5707963267949,3.14159265358979,                     97P    168
3.14159265358979,3.14159265358979,1.,0.70710678118653,1.,             97P    169
0.707106781186548,0.499999999999987,0.707106781186548,1.,             97P    170
0.70710678118653,1.,0.707106781186548,0.499999999999987,              97P    171
0.707106781186548,1.,0.70710678118653,1.,0.707106781186548,           97P    172
0.499999999999987,0.707106781186548,1.,0.70710678118653,1.,           97P    173
0.707106781186548,0.499999999999987,0.707106781186548,1.,             97P    174
0.70710678118653,1.,-29.006,0.,0.,-28.956,0.,                         97P    175
-1.64888510654542D-15,-28.956,0.,0.05,-29.006,-29.006,0.,             97P    176
-28.956,-28.956,-1.64888510654542D-15,-28.956,-28.956,0.05,0.,        97P    177
-29.006,0.,0.,-28.956,-1.64798730217797D-15,0.,-28.956,0.05,          97P    178
29.006,-29.006,0.,28.956,-28.956,-1.64708949781052D-15,28.956,        97P    179
-28.956,0.05,29.006,0.,0.,28.956,0.,-1.64708949781052D-15,            97P    180
28.956,0.,0.05,29.006,29.006,0.,28.956,28.956,                        97P    181
-1.64708949781052D-15,28.956,28.956,0.05,0.,29.006,0.,0.,28.956,      97P    182
-1.64798730217797D-15,0.,28.956,0.05,-29.006,29.006,0.,-28.956,       97P    183
28.956,-1.64888510654542D-15,-28.956,28.956,0.05,-29.006,0.,0.,       97P    184
-28.956,0.,-1.64888510654542D-15,-28.956,0.,0.05,                     97P    185
-3.14159265358979,-1.57079632679486,-3.14159265358979,                97P    186
3.14159265358979;                                                     97P    187
128,1,8,1,2,0,1,0,0,1,0.00172675783948059,0.00172675783948059,        99P    188
0.100877192982456,0.100877192982456,-3.14159265358979,                99P    189
-3.14159265358979,-3.14159265358979,-1.5707963267949,                 99P    190
-1.5707963267949,0.,0.,1.5707963267949,1.5707963267949,               99P    191
3.14159265358979,3.14159265358979,3.14159265358979,1.,1.,             99P    192
0.707106781186548,0.707106781186548,1.,1.,0.707106781186548,          99P    193
0.707106781186548,1.,1.,0.707106781186548,0.707106781186548,1.,       99P    194
1.,0.707106781186548,0.707106781186548,1.,1.,-28.956,0.,0.05,         99P    195
-28.956,0.,2.921,-28.956,-28.956,0.05,-28.956,-28.956,2.921,0.,       99P    196
-28.956,0.05,0.,-28.956,2.921,28.956,-28.956,0.05,28.956,             99P    197
-28.956,2.921,28.956,0.,0.05,28.956,0.,2.921,28.956,28.956,0.05,      99P    198
28.956,28.956,2.921,0.,28.956,0.05,0.,28.956,2.921,-28.956,           99P    199
28.956,0.05,-28.956,28.956,2.921,-28.956,0.,0.05,-28.956,0.,          99P    200
2.921,0.00172675783948059,0.100877192982456,-3.14159265358979,        99P    201
3.14159265358979;                                                     99P    202
128,1,1,1,1,0,0,1,0,0,-5.901,-5.901,1.501,1.501,-3.701,-3.701,       101P    203
3.701,3.701,1.,1.,1.,1.,37.01,-37.01,0.,-37.01,-37.01,0.,37.01,      101P    204
37.01,0.,-37.01,37.01,0.,-5.901,1.501,-3.701,3.701;                  101P    205
128,2,8,2,2,0,1,0,0,1,0.,0.,0.,1.57079632679494,                     103P    206
1.57079632679494,1.57079632679494,-3.14159265358979,                 103P    207
-3.14159265358979,-3.14159265358979,-1.5707963267949,                103P    208
-1.5707963267949,0.,0.,1.5707963267949,1.5707963267949,              103P    209
3.14159265358979,3.14159265358979,3.14159265358979,1.,               103P    210
0.707106781186529,1.,0.707106781186548,0.499999999999987,            103P    211
0.707106781186548,1.,0.707106781186529,1.,0.707106781186548,         103P    212
0.499999999999987,0.707106781186548,1.,0.707106781186529,1.,         103P    213
0.707106781186548,0.499999999999987,0.707106781186548,1.,            103P    214
0.707106781186529,1.,0.707106781186548,0.499999999999987,            103P    215
0.707106781186548,1.,0.707106781186529,1.,25.1468,0.,0.,25.1968,     103P    216
0.,-1.92395136457645D-15,25.1968,0.,0.05,25.1468,-25.1468,0.,        103P    217
25.1968,-25.1968,-1.92395136457645D-15,25.1968,-25.1968,0.05,0.,     103P    218
-25.1468,0.,0.,-25.1968,-1.92554305833426D-15,0.,-25.1968,0.05,      103P    219
-25.1468,-25.1468,0.,-25.1968,-25.1968,-1.92713475209206D-15,        103P    220
-25.1968,-25.1968,0.05,-25.1468,0.,0.,-25.1968,0.,                   103P    221
-1.92713475209206D-15,-25.1968,0.,0.05,-25.1468,25.1468,0.,          103P    222
-25.1968,25.1968,-1.92713475209206D-15,-25.1968,25.1968,0.05,0.,     103P    223
25.1468,0.,0.,25.1968,-1.92554305833426D-15,0.,25.1968,0.05,         103P    224
25.1468,25.1468,0.,25.1968,25.1968,-1.92395136457645D-15,            103P    225
25.1968,25.1968,0.05,25.1468,0.,0.,25.1968,0.,                       103P    226
-1.92395136457645D-15,25.1968,0.,0.05,0.,1.57079632679494,           103P    227
-3.14159265358979,3.14159265358979;                                  103P    228
128,1,8,1,2,0,1,0,0,1,0.00198437896875794,0.00198437896875794,       105P    229
0.115927419354839,0.115927419354839,-3.14159265358979,               105P    230
-3.14159265358979,-3.14159265358979,-1.5707963267949,                105P    231
-1.5707963267949,0.,0.,1.5707963267949,1.5707963267949,              105P    232
3.14159265358979,3.14159265358979,3.14159265358979,1.,1.,            105P    233
0.707106781186548,0.707106781186548,1.,1.,0.707106781186548,         105P    234
0.707106781186548,1.,1.,0.707106781186548,0.707106781186548,1.,      105P    235
1.,0.707106781186548,0.707106781186548,1.,1.,-25.1968,0.,2.921,      105P    236
-25.1968,0.,0.05,-25.1968,-25.1968,2.921,-25.1968,-25.1968,0.05,     105P    237
0.,-25.1968,2.921,0.,-25.1968,0.05,25.1968,-25.1968,2.921,           105P    238
25.1968,-25.1968,0.05,25.1968,0.,2.921,25.1968,0.,0.05,25.1968,      105P    239
25.1968,2.921,25.1968,25.1968,0.05,0.,25.1968,2.921,0.,25.1968,      105P    240
0.05,-25.1968,25.1968,2.921,-25.1968,25.1968,0.05,-25.1968,0.,       105P    241
2.921,-25.1968,0.,0.05,0.00198437896875794,0.115927419354839,        105P    242
-3.14159265358979,3.14159265358979;                                  105P    243
128,1,1,1,1,0,0,1,0,0,-4.71568,-4.71568,0.31568,0.31568,             107P    244
-2.51568,-2.51568,2.51568,2.51568,1.,1.,1.,1.,25.1568,-25.1568,      107P    245
0.,-25.1568,-25.1568,0.,25.1568,25.1568,0.,-25.1568,25.1568,0.,      107P    246
-4.71568,0.31568,-2.51568,2.51568;                                   107P    247
128,1,1,1,1,0,0,1,0,0,-3.701,-3.701,3.701,3.701,-3.701,-3.701,       109P    248
3.701,3.701,1.,1.,1.,1.,37.01,37.01,5.,-37.01,37.01,5.,37.01,        109P    249
-37.01,5.,-37.01,-37.01,5.,-3.701,3.701,-3.701,3.701;                109P    250
128,1,8,1,2,0,1,0,0,1,0.,0.,0.135135135135135,0.135135135135135,     111P    251
-3.14159265358979,-3.14159265358979,-3.14159265358979,               111P    252
-1.5707963267949,-1.5707963267949,0.,0.,1.5707963267949,             111P    253
1.5707963267949,3.14159265358979,3.14159265358979,                   111P    254
3.14159265358979,1.,1.,0.707106781186548,0.707106781186548,1.,       111P    255
1.,0.707106781186548,0.707106781186548,1.,1.,0.707106781186548,      111P    256
0.707106781186548,1.,1.,0.707106781186548,0.707106781186548,1.,      111P    257
1.,-37.,0.,5.,-37.,0.,0.,-37.,-37.,5.,-37.,-37.,0.,0.,-37.,5.,       111P    258
0.,-37.,0.,37.,-37.,5.,37.,-37.,0.,37.,0.,5.,37.,0.,0.,37.,37.,      111P    259
5.,37.,37.,0.,0.,37.,5.,0.,37.,0.,-37.,37.,5.,-37.,37.,0.,-37.,      111P    260
0.,5.,-37.,0.,0.,0.,0.135135135135135,-3.14159265358979,             111P    261
3.14159265358979;                                                    111P    262
128,1,1,1,1,0,0,1,0,0,-2.8966,-2.8966,2.8966,2.8966,-2.8966,         113P    263
-2.8966,2.8966,2.8966,1.,1.,1.,1.,-28.966,28.966,2.921,28.966,       113P    264
28.966,2.921,-28.966,-28.966,2.921,28.966,-28.966,2.921,-2.8966,     113P    265
2.8966,-2.8966,2.8966;                                               113P    266
128,2,8,2,2,0,1,0,0,1,0.,0.,0.,1.5707963267949,1.5707963267949,      115P    267
1.5707963267949,-3.14159265358979,-3.14159265358979,                 115P    268
-3.14159265358979,-1.5707963267949,-1.5707963267949,0.,0.,           115P    269
1.5707963267949,1.5707963267949,3.14159265358979,                    115P    270
3.14159265358979,3.14159265358979,1.,0.707106781186548,1.,           115P    271
0.707106781186548,0.5,0.707106781186548,1.,0.707106781186548,1.,     115P    272
0.707106781186548,0.5,0.707106781186548,1.,0.707106781186548,1.,     115P    273
0.707106781186548,0.5,0.707106781186548,1.,0.707106781186548,1.,     115P    274
0.707106781186548,0.5,0.707106781186548,1.,0.707106781186548,1.,     115P    275
-22.,0.,0.,-22.,0.,22.,-1.34711147906209D-15,0.,22.,-22.,-22.,       115P    276
0.,-22.,-22.,22.,-1.34711147906209D-15,-1.34711147906209D-15,        115P    277
22.,0.,-22.,0.,0.,-22.,22.,0.,-1.34711147906209D-15,22.,22.,         115P    278
-22.,0.,22.,-22.,22.,1.34711147906209D-15,-1.34711147906209D-15,     115P    279
22.,22.,0.,0.,22.,0.,22.,1.34711147906209D-15,0.,22.,22.,22.,0.,     115P    280
22.,22.,22.,1.34711147906209D-15,1.34711147906209D-15,22.,0.,        115P    281
22.,0.,0.,22.,22.,0.,1.34711147906209D-15,22.,-22.,22.,0.,-22.,      115P    282
22.,22.,-1.34711147906209D-15,1.34711147906209D-15,22.,-22.,0.,      115P    283
0.,-22.,0.,22.,-1.34711147906209D-15,0.,22.,0.,1.5707963267949,      115P    284
-3.14159265358979,3.14159265358979;                                  115P    285
128,2,8,2,2,0,1,0,0,1,0.156892871020461,0.156892871020461,           117P    286
0.156892871020461,1.5707963267949,1.5707963267949,                   117P    287
1.5707963267949,-3.14159265358979,-3.14159265358979,                 117P    288
-3.14159265358979,-1.5707963267949,-1.5707963267949,0.,0.,           117P    289
1.5707963267949,1.5707963267949,3.14159265358979,                    117P    290
3.14159265358979,3.14159265358979,1.,0.760345316287278,1.,           117P    291
0.707106781186548,0.537645329190164,0.707106781186548,1.,            117P    292
0.760345316287278,1.,0.707106781186548,0.537645329190164,            117P    293
0.707106781186548,1.,0.760345316287278,1.,0.707106781186548,         117P    294
0.537645329190164,0.707106781186548,1.,0.760345316287278,1.,         117P    295
0.707106781186548,0.537645329190164,0.707106781186548,1.,            117P    296
0.760345316287278,1.,-1.95943487863577D-15,0.,32.,                   117P    297
-27.335750277672,0.,32.,-31.6069612585582,0.,5.,                     117P    298
-1.95943487863576D-15,-1.95943487863576D-15,32.,                     117P    299
-27.335750277672,-27.335750277672,32.,-31.6069612585582,             117P    300
-31.6069612585582,5.,0.,-1.95943487863577D-15,32.,0.,                117P    301
-27.335750277672,32.,0.,-31.6069612585582,5.,                        117P    302
1.95943487863576D-15,-1.95943487863576D-15,32.,27.335750277672,      117P    303
-27.335750277672,32.,31.6069612585582,-31.6069612585582,5.,          117P    304
1.95943487863577D-15,0.,32.,27.335750277672,0.,32.,                  117P    305
31.6069612585582,0.,5.,1.95943487863576D-15,                         117P    306
1.95943487863576D-15,32.,27.335750277672,27.335750277672,32.,        117P    307
31.6069612585582,31.6069612585582,5.,0.,1.95943487863577D-15,        117P    308
32.,0.,27.335750277672,32.,0.,31.6069612585582,5.,                   117P    309
-1.95943487863576D-15,1.95943487863576D-15,32.,-27.335750277672,     117P    310
27.335750277672,32.,-31.6069612585582,31.6069612585582,5.,           117P    311
-1.95943487863577D-15,0.,32.,-27.335750277672,0.,32.,                117P    312
-31.6069612585582,0.,5.,0.156892871020461,1.5707963267949,           117P    313
-3.14159265358979,3.14159265358979;                                  117P    314
502,15,-29.006,3.55221050560681D-15,0.,-28.956,                      119P    315
-3.54608727161108D-15,0.05,-28.956,3.54608727161108D-15,2.921,       119P    316
-37.,4.53119315684521D-15,0.,-25.1468,-3.07959481287987D-15,0.,      119P    317
25.1468,0.,0.,25.1968,0.,0.05,-25.1968,3.0857180468756D-15,0.05,     119P    318
-25.1968,3.0857180468756D-15,2.921,-22.,0.,0.,-37.,                  119P    319
4.53119315684521D-15,5.,3.87073639360677D-15,-31.6069612585582,      119P    320
5.,-31.6069612585582,0.,5.,-1.34711147906209D-15,0.,22.,             119P    321
-1.95943487863577D-15,0.,32.;                                        119P    322
504,20,57,119,1,119,1,59,119,1,119,2,61,119,2,119,2,63,119,2,        121P    323
119,3,65,119,3,119,3,67,119,4,119,4,69,119,5,119,6,71,119,6,119,     121P    324
7,73,119,7,119,8,75,119,8,119,7,77,119,6,119,5,79,119,8,119,9,       121P    325
81,119,9,119,9,83,119,10,119,10,85,119,11,119,11,87,119,12,119,      121P    326
13,89,119,13,119,12,91,119,11,119,4,93,119,14,119,10,95,119,15,      121P    327
119,13;                                                              121P    328
406,1,5HBody1;                                                       123P    329
314,62.7450980392157,62.7450980392157,62.7450980392157,13HSteel      125P    330
- Satin;                                                             125P    331
S      1G      2D    126P    331                                        T      1
